<svg height="512pt" viewBox="-7 0 512 512.001" width="512pt" xmlns="http://www.w3.org/2000/svg"><path d="m124.972656 41.617188v-19.390626c0-8.132812-6.59375-14.726562-14.726562-14.726562-8.132813 0-14.726563 6.59375-14.726563 14.726562v19.390626zm0 0" fill="#4c78a0"/><path d="m403.152344 41.617188v-19.390626c0-8.132812-6.59375-14.726562-14.726563-14.726562-8.132812 0-14.726562 6.59375-14.726562 14.726562v19.390626zm0 0" fill="#4c78a0"/><path d="m424.199219 246.316406h-349.722657c-5.523437 0-10-4.476562-10-10v-194.238281c0-5.523437 4.476563-10 10-10h349.722657c5.519531 0 10 4.476563 10 10v194.238281c0 5.523438-4.480469 10-10 10zm0 0" fill="#235872"/><path d="m434.195312 42.078125v180.195313h-369.71875v-180.195313c0-5.523437 4.476563-10 10-10h349.71875c5.523438 0 10 4.476563 10 10zm0 0" fill="#60daff"/><path d="m316.140625 32.078125-190.207031 190.195313h-35.691406l190.199218-190.195313zm0 0" fill="#a0ecff"/><path d="m408.125 32.078125-190.207031 190.195313h-73.074219l190.207031-190.195313zm0 0" fill="#a0ecff"/><path d="m205.761719 342.847656h-122.414063v-65.277344c0-20.226562 16.398438-36.625 36.628906-36.625h49.160157c20.226562 0 36.625 16.398438 36.625 36.625zm0 0" fill="#f55"/><path d="m398.484375 346.765625h-122.414063v-65.273437c0-20.230469 16.398438-36.628907 36.628907-36.628907h49.15625c20.230469 0 36.628906 16.398438 36.628906 36.628907zm0 0" fill="#1ee5ed"/><path d="m198.34375 192.667969c0 3.121093-.285156 6.191406-.828125 9.15625-.1875 1.003906-.402344 2.011719-.644531 2.992187-5.445313 21.90625-25.246094 38.148438-48.832032 38.148438-27.777343 0-50.292968-22.527344-50.292968-50.296875 0-2.3125.152344-4.582031.457031-6.820313.140625-1.070312.328125-2.128906.535156-3.175781.753907-3.789063 1.953125-7.433594 3.511719-10.859375 7.925781-17.378906 25.453125-29.449219 45.789062-29.449219 27.230469 0 49.410157 21.644531 50.273438 48.667969.019531.535156.03125 1.082031.03125 1.636719zm0 0" fill="#336686"/><path d="m354.65625 249.546875h-34.757812c-22.339844 0-38.558594-21.238281-32.683594-42.785156l6.746094-24.730469c5.324218-19.535156 23.070312-33.085938 43.316406-33.085938 20.25 0 37.992187 13.550782 43.316406 33.085938l6.746094 24.730469c5.875 21.546875-10.347656 42.785156-32.683594 42.785156zm0 0" fill="#b08989"/><path d="m59.101562 504.5c-8.769531 0-15.882812-7.109375-15.882812-15.882812v-26.730469h31.765625v26.730469c0 8.773437-7.109375 15.882812-15.882813 15.882812zm0 0" fill="#4c78a0"/><path d="m439.570312 504.5c-8.773437 0-15.882812-7.109375-15.882812-15.882812v-26.730469h31.765625v26.730469c0 8.773437-7.113281 15.882812-15.882813 15.882812zm0 0" fill="#4c78a0"/><path d="m467.207031 469.234375h-435.738281c-13.238281 0-23.96875-10.730469-23.96875-23.96875v-34.355469c0-13.238281 10.730469-23.96875 23.96875-23.96875h435.738281c13.234375 0 23.964844 10.730469 23.964844 23.96875v34.355469c0 13.238281-10.730469 23.96875-23.964844 23.96875zm0 0" fill="#cbd359"/><path d="m461.917969 312.078125v94.953125c0 5.410156-4.390625 9.789062-9.800781 9.789062h-405.5625c-5.40625 0-9.796876-4.378906-9.796876-9.789062v-94.953125c0-23.71875 19.230469-42.949219 42.949219-42.949219h339.257813c23.722656 0 42.953125 19.230469 42.953125 42.949219zm0 0" fill="#e6f072"/><path d="m300.886719 377.488281c-.738281 7.371094-5.121094 13.78125-11.710938 17.152344l-10.789062 5.519531c-3.050781 1.558594-6.46875 2.378906-9.890625 2.378906-4.910156 0-9.71875-1.679687-13.550782-4.75l-11.988281-9.570312c-2.492187-1.988281-4.53125-4.339844-6.121093-6.898438-5.480469-2.019531-10.308594-5.660156-13.75-10.550781l-63.667969-90.28125c-2.441407-3.457031-4.070313-7.316406-4.839844-11.359375h68.160156l47.976563 68.050782c1.472656 2.082031 2.621094 4.289062 3.480468 6.570312.953126.578125 1.890626 1.210938 2.769532 1.910156l15.871094 12.691406c5.789062 4.617188 8.800781 11.777344 8.050781 19.136719zm0 0" fill="#cbd359"/><path d="m461.910156 312.082031v27.972657c0-23.71875-19.222656-42.953126-42.949218-42.953126h-339.25c-23.726563 0-42.949219 19.234376-42.949219 42.953126v-27.972657c0-23.71875 19.222656-42.949219 42.949219-42.949219h339.25c23.730468 0 42.949218 19.230469 42.949218 42.949219zm0 0" fill="#cbd359"/><path d="m246.914062 371.125c-5.382812 0-10.6875-2.53125-14.023437-7.265625l-63.667969-90.285156c-5.457031-7.734375-3.605468-18.433594 4.132813-23.890625 7.738281-5.457032 18.433593-3.605469 23.890625 4.132812l63.667968 90.28125c5.457032 7.738282 3.605469 18.433594-4.132812 23.890625-3.003906 2.117188-6.453125 3.136719-9.867188 3.136719zm0 0" fill="#f55"/><path d="m250.449219 378.84375 11.984375 9.578125c2.984375 2.382813 7.085937 2.796875 10.484375 1.058594l10.792969-5.523438c6.277343-3.210937 7.148437-11.828125 1.640624-16.230469l-15.878906-12.6875c-6.574218-5.253906-16.164062-4.183593-21.417968 2.390626-5.25 6.574218-4.179688 16.160156 2.394531 21.414062zm0 0" fill="#ffb38c"/><path d="m469.414062 379.527344v-21.4375c0-4.144532-3.355468-7.5-7.5-7.5-4.140624 0-7.5 3.355468-7.5 7.5v48.9375c0 1.265625-1.027343 2.296875-2.296874 2.296875h-405.5625c-1.265626 0-2.296876-1.03125-2.296876-2.296875v-94.941406c0-19.550782 15.902344-35.453126 35.453126-35.453126h82.5625c.265624.425782 64.488281 91.550782 64.488281 91.550782 3.203125 4.542968 7.855469 7.847656 13.125 9.417968 1.414062 2.667969 3.375 5.097657 5.878906 7.101563l11.988281 9.578125c3.109375 2.484375 6.917969 3.757812 10.75 3.757812 2.675782 0 5.363282-.617187 7.832032-1.882812l10.792968-5.519531c5.222656-2.675781 8.695313-7.757813 9.285156-13.597657.585938-5.835937-1.796874-11.507812-6.382812-15.171874l-15.875-12.6875c-1.164062-.929688-2.398438-1.730469-3.6875-2.402344-.761719-2.492188-1.90625-4.84375-3.425781-7l-44.53125-63.144532h196.449219c19.550781 0 35.453124 15.902344 35.453124 35.453126v11.824218c0 4.144532 3.359376 7.5 7.5 7.5 4.144532 0 7.5-3.355468 7.5-7.5v-11.824218c0-27.820313-22.632812-50.453126-50.453124-50.453126h-17.710938c-1.410156-2.792968-3.097656-5.410156-5.039062-7.8125h27.988281c9.648437 0 17.5-7.851562 17.5-17.5v-119.230468c0-4.144532-3.359375-7.5-7.5-7.5-4.144531 0-7.5 3.355468-7.5 7.5v97.6875h-30.667969c-.078125-3.332032-.554688-6.679688-1.457031-9.992188l-6.742188-24.726562c-6.203125-22.734375-26.988281-38.613282-50.554687-38.613282s-44.355469 15.878907-50.554688 38.613282l-6.746094 24.726562c-.902343 3.3125-1.375 6.664063-1.457031 9.992188h-77.085937c2.835937-6.816406 4.40625-14.285156 4.40625-22.117188 0-2.511718-.175782-4.980468-.488282-7.40625 2.539063-.707031 5-1.609375 7.351563-2.71875 3.746094-1.769531 5.351563-6.238281 3.582031-9.984375-1.769531-3.746093-6.238281-5.351562-9.984375-3.578125-1.523437.71875-3.128906 1.300782-4.789062 1.773438-8.652344-21.03125-29.355469-35.882813-53.46875-35.882813-31.871094 0-57.800781 25.929688-57.800781 57.800781 0 7.828126 1.574218 15.296876 4.40625 22.113282h-22.671876v-172.699219c0-1.378906 1.121094-2.5 2.5-2.5h349.722657c1.378906 0 2.5 1.121094 2.5 2.5v40.832031c0 4.144532 3.355469 7.5 7.5 7.5 4.140625 0 7.5-3.355468 7.5-7.5v-40.832031c0-9.648437-7.851563-17.5-17.5-17.5h-13.546875v-2.351563c0-12.253906-9.96875-22.226562-22.226563-22.226562-12.253906 0-22.226562 9.972656-22.226562 22.226562v2.351563h-233.726563v-2.351563c0-12.253906-9.96875-22.226562-22.226562-22.226562-12.253906 0-22.226563 9.972656-22.226563 22.226562v2.351563h-13.542969c-9.648437 0-17.5 7.851563-17.5 17.5v194.242187c0 9.648438 7.851563 17.5 17.5 17.5h8.335938c-1.578125 2.445313-2.925781 5.066407-3.996094 7.832032-27.40625.480468-49.558594 22.910156-49.558594 50.429687v67.445313c-16.324218 1.140625-29.257812 14.777344-29.257812 31.382812v34.355469c0 17.351563 14.117188 31.46875 31.46875 31.46875h4.25v11.882813c0 12.894531 10.492188 23.382812 23.382812 23.382812 12.894532 0 23.382813-10.488281 23.382813-23.382812v-11.882813h21.761719c4.144531 0 7.5-3.359375 7.5-7.5 0-4.144531-3.355469-7.5-7.5-7.5h-72.777344c-9.082031 0-16.46875-7.386719-16.46875-16.46875v-34.355469c0-8.328125 6.222656-15.214844 14.257812-16.300781v12.417969c0 9.535156 7.757813 17.296875 17.296876 17.296875h405.5625c9.539062 0 17.296874-7.761719 17.296874-17.296875v-12.417969c8.039063 1.085937 14.257813 7.972656 14.257813 16.300781v34.355469c0 9.082031-7.386719 16.46875-16.464844 16.46875h-328.78125c-4.140625 0-7.5 3.355469-7.5 7.5 0 4.140625 3.359375 7.5 7.5 7.5h277.761719v11.882813c0 12.894531 10.488281 23.382812 23.382812 23.382812 12.894532 0 23.382813-10.488281 23.382813-23.382812v-11.882813h4.253906c17.347657 0 31.464844-14.117187 31.464844-31.46875v-34.355469c0-16.609375-12.933594-30.242187-29.257813-31.382812zm-88.214843-357.300782c0-3.984374 3.242187-7.226562 7.226562-7.226562s7.226563 3.242188 7.226563 7.226562v2.351563h-14.453125zm-278.179688 0c0-3.984374 3.242188-7.226562 7.226563-7.226562 3.988281 0 7.226562 3.242188 7.226562 7.226562v2.351563h-14.449218v-2.351563zm72.332031 247.027344c-1.242187-1.765625-1.851562-3.832031-1.753906-5.980468.1875-4.136719-3.015625-7.644532-7.152344-7.828126-3.804687-.199218-7.074218 2.523438-7.71875 6.1875h-63.089843c5.300781-8.023437 14.421875-13.1875 24.339843-13.1875h12.359376c.171874 0 .335937-.015624.503906-.023437 4.847656 1.320313 9.941406 2.042969 15.203125 2.042969 5.332031 0 10.496093-.742188 15.402343-2.101563.347657.046875.699219.082031 1.058594.082031h4.632813c10.234375 0 19.84375 5.476563 25.074219 14.292969.140624.238281 58.453124 82.675781 58.453124 82.675781-4.089843 1.378907-7.710937 3.882813-10.464843 7.332032-1.554688 1.945312-2.71875 4.070312-3.539063 6.28125zm105.316407 104.332032c.820312.652343.867187 1.5.820312 1.945312-.042969.449219-.261719 1.269531-1.191406 1.746094l-10.792969 5.523437c-.773437.394531-1.710937.300781-2.386718-.242187l-11.988282-9.574219c-3.332031-2.664063-3.875-7.542969-1.214844-10.875 1.292969-1.613281 3.132813-2.628906 5.1875-2.859375.292969-.03125.582032-.046875.875-.046875 1.746094 0 3.429688.585937 4.8125 1.691406zm-74.367188-119.769532h72.042969c-1.941406 2.40625-3.628906 5.027344-5.039062 7.8125h-61.371094s-5.4375-7.511718-5.632813-7.8125zm85.113281 7.8125c3.347657-3.578125 7.570313-6.3125 12.289063-7.847656 5.035156 2.132812 10.515625 3.265625 16.191406 3.265625h34.761719c5.679688 0 11.164062-1.132813 16.199219-3.265625 4.730469 1.535156 8.945312 4.269531 12.289062 7.847656zm135.285157-25.3125c0 1.378906-1.125 2.5-2.5 2.5h-35.246094c1.929687-2.847656 3.464844-5.886718 4.617187-9.039062h33.128907zm-132.25-27.582031 6.746093-24.730469c4.425782-16.226562 19.261719-27.558594 36.082032-27.558594 16.820312 0 31.65625 11.332032 36.082031 27.558594l6.742187 24.730469c2.183594 7.996094.546876 16.359375-4.484374 22.945313-5.03125 6.589843-12.667969 10.367187-20.957032 10.367187h-34.761718c-8.289063 0-15.929688-3.777344-20.960938-10.367187-5.03125-6.585938-6.667969-14.949219-4.488281-22.945313zm-13.464844 21.042969c1.152344 3.152344 2.683594 6.191406 4.613281 9.039062h-94.316406c-.339844 0-.671875.03125-1 .074219-1.546875-.84375-3.140625-1.605469-4.777344-2.261719 2.449219-2.09375 4.730469-4.382812 6.800782-6.851562zm-132.941406-79.917969c23.597656 0 42.800781 19.203125 42.800781 42.800781 0 23.601563-19.203125 42.800782-42.800781 42.800782-23.601563 0-42.800781-19.199219-42.800781-42.800782 0-23.597656 19.199218-42.800781 42.800781-42.800781zm-76.066407 86.457031v-6.539062h31.800782c1.53125 1.820312 3.175781 3.546875 4.914062 5.167968-3.445312.921876-6.75 2.261719-9.847656 3.960938-.359375-.050781-.726562-.089844-1.101562-.089844h-23.265626c-1.378906 0-2.5-1.121094-2.5-2.5zm-4.492187 252.300782c0 4.621093-3.761719 8.382812-8.382813 8.382812-4.621093 0-8.382812-3.761719-8.382812-8.382812v-11.886719h16.765625zm380.46875 0c0 4.621093-3.761719 8.382812-8.382813 8.382812-4.621093 0-8.382812-3.761719-8.382812-8.382812v-11.886719h16.765625zm0 0"/></svg>